<svg xmlns="http://www.w3.org/2000/svg" viewBox="0 0 32 32" fill="none">
  <rect width="32" height="32" rx="8" fill="url(#g)"/>
  <path d="M10 12a2 2 0 012-2h8a2 2 0 012 2v6l3 3v-9a4 4 0 00-4-4H12a4 4 0 00-4 4v8a4 4 0 004 4h8a4 4 0 004-4h-2a2 2 0 01-2 2h-8a2 2 0 01-2-2v-8z" fill="white" fill-opacity="0.9"/>
  <defs>
    <linearGradient id="g" x1="0" y1="0" x2="32" y2="32" gradientUnits="userSpaceOnUse">
      <stop stop-color="#7c3aed"/>
      <stop offset="1" stop-color="#2563eb"/>
    </linearGradient>
  </defs>
</svg>
